<svg width="18" height="18" viewBox="0 0 18 18" fill="none" xmlns="http://www.w3.org/2000/svg">
<path d="M0 3.72246V2.31885C0 1.73729 0.473449 1.26416 1.05536 1.26416H16.9446C17.5266 1.26416 18 1.73729 18 2.31885V3.72246H0Z" fill="#FF6B08"/>
<path d="M18 4.80518H0V15.6808C0 16.2633 0.4725 16.7355 1.05536 16.7355H16.9446C17.5275 16.7355 18 16.2633 18 15.6808V4.80518ZM6.49195 12.4021C6.72131 12.5818 6.7615 12.9132 6.58167 13.1425C6.47761 13.2751 6.32261 13.3445 6.16605 13.3445C6.05215 13.3445 5.93743 13.3078 5.84086 13.2321L3.65906 11.5228C3.53148 11.4228 3.45695 11.2698 3.45695 11.1078C3.45695 10.9457 3.53148 10.7927 3.65906 10.6928L5.84086 8.98343C6.07018 8.80374 6.40192 8.84393 6.58167 9.07307C6.7615 9.30233 6.72131 9.63375 6.49195 9.81347L4.83989 11.1078L6.49195 12.4021ZM10.2478 8.52274L8.78984 13.9655C8.7267 14.2011 8.51347 14.3566 8.28042 14.3566C8.23525 14.3566 8.18937 14.3508 8.14363 14.3385C7.8621 14.2632 7.695 13.9741 7.77038 13.6927L9.22827 8.25C9.30361 7.96864 9.5928 7.80161 9.87444 7.87695C10.156 7.95229 10.3231 8.24138 10.2478 8.52274ZM14.3409 11.5228L12.1591 13.2321C12.0626 13.3077 11.9478 13.3445 11.8339 13.3445C11.6774 13.3445 11.5224 13.2751 11.4183 13.1424C11.2385 12.9132 11.2787 12.5818 11.508 12.4021L13.1601 11.1077L11.508 9.81343C11.2721 9.62854 11.2364 9.28299 11.4345 9.05342C11.6201 8.83841 11.9472 8.81735 12.1708 8.99257L14.341 10.6928C14.4686 10.7927 14.5431 10.9457 14.5431 11.1078C14.5431 11.2698 14.4686 11.4228 14.3409 11.5228Z" fill="#FF6B08"/>
</svg>
